
<svg width="60px" height="67px" viewBox="0 0 60 67" version="1.1" xmlns="http://www.w3.org/2000/svg" xmlns:xlink="http://www.w3.org/1999/xlink">
    <!-- Generator: Sketch 43.1 (39012) - http://www.bohemiancoding.com/sketch -->
    <desc>Created with Sketch.</desc>
    <defs></defs>
    <g id="Page-1" stroke="none" stroke-width="1" fill="none" fill-rule="evenodd">
        <g id="logo4" fill-rule="nonzero">
            <path d="M25.467,1.4784 C28.0554,-0.0012 32.253,0.0114 34.833,1.5024 L55.32,13.3278 C57.9048,14.8206 60,18.4476 60,21.4248 L60,45.4044 C60,48.3834 57.9012,52.0104 55.32,53.5008 L34.8336,65.328 C32.2488,66.8202 28.0572,66.8316 25.4676,65.352 L4.686,53.478 C2.0988,51.999 0,48.3828 0,45.4056 L0,21.426 C0,18.4458 2.0964,14.832 4.686,13.3524 L25.467,1.4784 L25.467,1.4784 Z" id="Shape" fill="#2A2B30"></path>
            <polygon id="Shape" fill="#FFFFFF" points="20.517 23.1324 24.4854 23.1324 26.1306 39.9912 28.1148 29.0856 31.8828 29.0856 34.1904 39.9912 35.4828 23.1324 39.4818 23.1324 36.8358 46.098 32.6058 46.098 29.991 34.038 27.5454 46.098 23.3466 46.098 20.5164 23.1324"></polygon>
        </g>
    </g>
</svg>
