<svg width="60" height="67" viewBox="0 0 60 67" xmlns="http://www.w3.org/2000/svg"><g fill="none"><path d="M25.467 1.478c2.588-1.48 6.786-1.467 9.366.024L55.32 13.328c2.585 1.493 4.68 5.12 4.68 8.097v23.98c0 2.978-2.099 6.605-4.68 8.096L34.834 65.328c-2.585 1.492-6.777 1.504-9.366.024L4.686 53.478C2.099 51.999 0 48.383 0 45.406v-23.98c0-2.98 2.096-6.594 4.686-8.074L25.467 1.478z" fill="#2A2B30"/><path fill="#FFF" d="M20.517 23.132h3.968l1.646 16.86 1.984-10.906h3.768L34.19 39.99l1.293-16.859h3.999l-2.646 22.966h-4.23l-2.615-12.06-2.446 12.06h-4.198l-2.83-22.966z"/></g></svg>